<svg xmlns="http://www.w3.org/2000/svg" data-name="Layer 1" viewBox="0 0 100 125" x="0px" y="0px">
  <defs>
    <style>.cls-1{fill:none;stroke:#000;stroke-linecap:round;stroke-miterlimit:10;stroke-width:2px;stroke-dasharray:2 4;}</style>
  </defs>
  <title>Trend line</title>
  <line class="cls-1" x1="19" y1="82" x2="84" y2="20"/>
  <path d="M89.5,90.5H9.5V10a1,1,0,0,1,2,0V88.5h78a1,1,0,0,1,0,2Z"/>
  <path d="M23,68.5A4.5,4.5,0,1,1,27.5,64,4.5,4.5,0,0,1,23,68.5Zm0-7A2.5,2.5,0,1,0,25.5,64,2.5,2.5,0,0,0,23,61.5Z"/>
  <path d="M38.5,79A4.5,4.5,0,1,1,43,74.5,4.5,4.5,0,0,1,38.5,79Zm0-7A2.5,2.5,0,1,0,41,74.5,2.5,2.5,0,0,0,38.5,72Z"/>
  <path d="M52.5,65A4.5,4.5,0,1,1,57,60.5,4.5,4.5,0,0,1,52.5,65Zm0-7A2.5,2.5,0,1,0,55,60.5,2.5,2.5,0,0,0,52.5,58Z"/>
  <path d="M49.5,46A4.5,4.5,0,1,1,54,41.5,4.5,4.5,0,0,1,49.5,46Zm0-7A2.5,2.5,0,1,0,52,41.5,2.5,2.5,0,0,0,49.5,39Z"/>
  <path d="M69.5,48A4.5,4.5,0,1,1,74,43.5,4.5,4.5,0,0,1,69.5,48Zm0-7A2.5,2.5,0,1,0,72,43.5,2.5,2.5,0,0,0,69.5,41Z"/>
  <path d="M71.5,26A4.5,4.5,0,1,1,76,21.5,4.5,4.5,0,0,1,71.5,26Zm0-7A2.5,2.5,0,1,0,74,21.5,2.5,2.5,0,0,0,71.5,19Z"/>
</svg>
