<svg xmlns="http://www.w3.org/2000/svg" xmlns:xlink="http://www.w3.org/1999/xlink" version="1.1" x="0px" y="0px" viewBox="0 0 48 60" enable-background="new 0 0 48 48" xml:space="preserve"><g><path fill="#000000" d="M42.6,19.7H5.4v27.8h37.2v-8.8h-7.1c-2.8,0-5.1-2.3-5.1-5.1l0,0c0-2.8,2.3-5.1,5.1-5.1h7.1   C42.6,28.5,42.6,19.7,42.6,19.7z"/><circle fill="#000000" cx="35.8" cy="33.6" r="2.3"/><path fill="#000000" d="M16.1,15.7c1.2-1.2,2.9-1.8,4.8-1.6c1.8,0.2,3.6,1,5,2.4c0.4,0.4,0.7,0.8,1,1.2h12l2.9-2.9L27.1,0.5   L10.5,17.6h4.4C15.1,16.9,15.5,16.2,16.1,15.7z M27.9,9.9c0.4-0.4,1-0.4,1.4,0l1.5,1.4c0.4,0.4,0.4,1,0,1.4   c-0.2,0.2-0.5,0.3-0.7,0.3c-0.3,0-0.5-0.1-0.7-0.3l-1.5-1.4C27.5,11,27.5,10.3,27.9,9.9z"/><path fill="#000000" d="M17.5,17.1c-0.2,0.2-0.3,0.4-0.4,0.5H24c-1-0.9-2.2-1.4-3.4-1.6C19.4,15.9,18.3,16.3,17.5,17.1z"/></g><text x="0" y="63" fill="#000000" font-size="5px" font-weight="bold" font-family="'Helvetica Neue', Helvetica, Arial-Unicode, Arial, Sans-serif">Created by Creative Stall</text><text x="0" y="68" fill="#000000" font-size="5px" font-weight="bold" font-family="'Helvetica Neue', Helvetica, Arial-Unicode, Arial, Sans-serif">from the Noun Project</text></svg>